# 3ds Max Wavefront OBJ Exporter v0.97b - (c)2007 guruware
# File Created: 28.06.2015 18:57:20

#
# object PillarExtraLarge
#

v  0.4625 -0.0141 0.1369
v  0.4146 -0.0223 -0.4631
v  -0.4413 -0.0188 -0.1497
v  -0.2739 -0.7833 0.5523
v  0.1700 -0.9355 0.4900
v  0.1933 -0.5923 0.4713
v  0.1353 -1.0013 -0.5177
v  0.3933 -0.9172 -0.4376
v  0.4877 -1.0186 -0.2455
v  0.5800 -0.6709 0.0478
v  0.4600 -0.8789 0.3328
v  0.4903 -1.1205 0.1968
v  -0.5165 -1.2539 0.1048
v  -0.5122 -1.4843 -0.0410
v  -0.4538 -1.5824 0.1179
v  -0.4108 -0.0241 -0.4771
v  0.3735 -1.0859 0.4140
v  -0.0546 -2.2134 -0.2686
v  0.2399 -2.1861 -0.1942
v  0.0592 -2.2339 0.0472
v  -0.1139 -0.9442 -0.5537
v  0.0735 -0.9269 -0.5533
v  -0.5466 -0.4110 -0.0173
v  -0.4912 -0.4260 -0.3343
v  -0.5740 -1.1009 -0.1285
v  -0.1197 -1.3552 -0.5114
v  -0.0914 -1.9196 -0.5043
v  -0.4073 -1.3812 -0.4016
v  -0.4461 -2.1612 -0.2755
v  -0.2318 -2.2105 -0.2213
v  -0.1469 -2.2377 0.1201
v  -0.3319 -1.3276 0.4230
v  -0.1775 -2.1260 0.2784
v  -0.0745 -1.5933 0.4520
v  0.3389 -2.1563 0.0736
v  -0.4012 -1.6137 0.1726
v  0.2840 -0.3780 0.5630
v  0.0676 -0.1772 0.5628
v  -0.1592 -0.5948 0.5803
v  -0.4370 -0.4762 -0.4660
v  -0.2243 -0.8517 -0.5163
v  -0.4672 -1.0647 -0.3875
v  0.2521 -0.0589 -0.5318
v  0.0660 -0.1726 -0.5803
v  0.3128 -1.8077 0.2142
v  -0.2473 -1.0752 0.5110
v  0.0906 -1.8722 -0.4905
v  0.1297 -1.2846 -0.4938
v  0.4846 -1.7656 -0.1824
v  0.5503 -0.0741 0.0401
v  0.4493 -0.5956 -0.4609
v  0.5698 -0.7853 -0.1592
v  0.4958 -0.8493 -0.3278
v  0.4806 -0.0833 -0.2663
v  0.3897 -0.2272 -0.5319
v  0.4449 -0.0646 -0.4945
v  0.2694 -0.2360 -0.5692
v  0.5218 -0.9235 -0.0775
v  0.4384 -2.1617 -0.0356
v  0.2062 -2.1546 -0.4167
v  0.4602 -2.0355 -0.1709
v  -0.5061 -0.0903 -0.3917
v  -0.5296 -0.0896 0.0971
v  -0.1959 -0.3285 0.5422
v  -0.5095 -0.5403 0.3994
v  -0.3661 -0.6061 0.5119
v  0.5327 -1.2328 -0.1779
v  0.5456 -1.2426 0.0946
v  0.5072 -1.8224 -0.1104
v  -0.3783 -0.0790 0.4866
v  0.2526 -0.0826 0.5470
v  0.1695 -0.0159 0.4923
v  -0.3923 -0.2972 0.5016
v  0.5076 -1.8168 0.0150
v  0.4466 -0.3530 0.5089
v  0.5698 -0.2724 0.1837
v  0.4952 -0.0680 0.4803
v  0.4333 -0.1431 0.5379
v  -0.5336 -1.5901 -0.1534
v  -0.4765 -1.8647 -0.0853
v  0.2854 -0.5097 0.5270
v  0.4977 -0.5186 0.3232
v  -0.3477 -2.0198 0.0962
v  -0.3272 -1.6586 0.3017
v  0.5241 -0.3304 -0.1691
v  -0.5569 -0.2600 0.0952
v  -0.4645 -0.0617 0.3640
v  -0.5202 -0.2788 0.3814
v  0.4991 -1.2768 0.2052
v  0.5207 -1.1165 -0.0300
v  -0.5721 -0.4940 0.2958
v  -0.5667 -0.6221 0.1379
v  -0.4709 -0.6026 0.3424
v  -0.4110 -0.8818 0.4041
v  -0.5800 -0.9995 0.0902
v  -0.2525 -0.3344 -0.5647
v  -0.3737 -0.1497 -0.5209
v  0.1553 -0.5209 -0.5745
v  -0.1038 -0.5720 -0.5686
v  -0.0097 -2.2329 0.1736
v  -0.2937 -2.0125 0.2341
v  -0.1623 -0.7493 -0.5551
v  0.0813 -0.8389 -0.5381
v  0.5773 -0.4515 0.0002
v  0.4172 -0.6368 0.3993
v  0.1030 -1.3266 0.4549
v  0.2538 -0.7592 -0.5075
v  0.4651 -0.4018 -0.3563
v  0.3037 -0.4085 -0.5357
v  -0.1663 -2.1617 -0.4692
v  0.4115 -1.9998 -0.2565
v  -0.4216 -1.6370 -0.3962
v  -0.3175 -2.0817 -0.4239
v  -0.5143 -1.3950 -0.2568
v  -0.5059 -1.8189 -0.2975
v  0.4935 -1.1589 -0.2331
v  -0.3791 -1.8898 0.0671
v  -0.4799 -2.0326 -0.1386
v  -0.3568 -0.0194 0.4435
v  0.5195 -1.6579 0.1223
v  0.3305 -1.4535 0.3515
v  0.3415 -1.2540 0.4126
v  -0.4339 -2.0124 -0.3530
v  -0.5023 -2.0664 -0.2637
v  0.4247 -0.0115 0.4653
v  -0.3346 -0.6786 0.5496
v  -0.4433 -1.2465 -0.4155
v  -0.2865 -1.1874 -0.4897
v  -0.2791 -1.3389 -0.4719
v  0.4144 -1.7093 0.2205
v  -0.3100 -0.9951 0.4856
v  -0.1703 -1.0150 0.5062
v  -0.1641 -1.1034 -0.5217
v  0.5400 -0.0815 -0.0758
v  -0.4596 -0.0195 0.2330
v  0.1234 -1.1136 -0.4977
v  -0.5362 -0.2917 0.3136
v  0.4575 -1.8345 -0.1693
# 138 vertices

vn 0.3254 0.9455 0.0128
vn 0.3710 0.8707 -0.3230
vn -0.3651 0.9306 -0.0253
vn -0.1131 -0.0992 0.9886
vn 0.2146 -0.0362 0.9760
vn 0.2232 -0.3912 0.8928
vn 0.3163 -0.2574 -0.9130
vn 0.5427 -0.3848 -0.7466
vn 0.8750 -0.1505 -0.4601
vn 0.9886 -0.0725 0.1318
vn 0.8549 -0.0827 0.5121
vn 0.9442 0.0171 0.3290
vn -0.9305 -0.1787 0.3197
vn -0.9812 -0.0932 0.1688
vn -0.8575 -0.1748 0.4838
vn -0.4102 0.7055 -0.5779
vn 0.6107 -0.0807 0.7877
vn 0.0271 -0.9854 -0.1680
vn 0.1919 -0.9756 -0.1063
vn 0.1444 -0.9894 0.0168
vn -0.1293 -0.0042 -0.9916
vn 0.1125 -0.1122 -0.9873
vn -0.9923 0.0178 -0.1227
vn -0.9613 -0.0344 -0.2734
vn -0.9875 -0.0653 -0.1434
vn -0.1050 -0.0579 -0.9928
vn -0.0884 -0.0746 -0.9933
vn -0.5897 -0.1364 -0.7960
vn -0.6495 -0.7297 -0.2136
vn -0.1342 -0.9837 -0.1195
vn -0.3281 -0.9095 0.2553
vn -0.6415 -0.1990 0.7408
vn -0.2844 -0.5665 0.7734
vn 0.0138 -0.2580 0.9660
vn 0.4596 -0.6881 0.5615
vn -0.8341 -0.2149 0.5080
vn 0.1865 -0.1094 0.9763
vn -0.0485 0.1711 0.9841
vn -0.0045 -0.3060 0.9520
vn -0.7082 -0.0664 -0.7029
vn -0.3134 -0.0931 -0.9450
vn -0.7412 -0.0075 -0.6712
vn 0.0888 0.5847 -0.8064
vn -0.0144 0.2189 -0.9756
vn 0.4557 -0.3822 0.8039
vn -0.2169 -0.0306 0.9757
vn 0.3324 -0.0571 -0.9414
vn 0.3649 -0.0289 -0.9306
vn 0.8133 -0.1221 -0.5688
vn 0.8654 0.4997 -0.0376
vn 0.7104 0.0116 -0.7037
vn 0.9676 -0.1612 -0.1942
vn 0.8782 -0.1922 -0.4380
vn 0.9598 0.0083 -0.2807
vn 0.6429 -0.0464 -0.7645
vn 0.7438 0.2939 -0.6003
vn 0.2040 0.0638 -0.9769
vn 0.9530 -0.2602 -0.1550
vn 0.6859 -0.7098 0.1603
vn 0.4034 -0.6029 -0.6884
vn 0.8852 -0.2948 -0.3600
vn -0.8706 0.3509 -0.3448
vn -0.8917 0.4516 0.0305
vn -0.2541 0.0708 0.9646
vn -0.7365 -0.2454 0.6303
vn -0.6235 0.0600 0.7795
vn 0.9136 0.0464 -0.4040
vn 0.9823 0.0872 0.1659
vn 0.9567 -0.1471 -0.2512
vn -0.4367 0.3784 0.8162
vn 0.0550 0.3957 0.9167
vn -0.0289 0.8827 0.4691
vn -0.4316 -0.5404 0.7223
vn 0.9245 -0.2390 0.2968
vn 0.6785 -0.2301 0.6976
vn 0.9872 0.0286 0.1570
vn 0.7392 0.4206 0.5260
vn 0.3994 0.1464 0.9050
vn -0.9979 -0.0250 0.0602
vn -0.9118 -0.1565 0.3797
vn 0.3142 -0.4359 0.8434
vn 0.8695 -0.1357 0.4749
vn -0.8272 -0.3835 0.4108
vn -0.8020 -0.2228 0.5542
vn 0.9564 0.0777 -0.2814
vn -0.9952 0.0981 -0.0033
vn -0.7681 0.5300 0.3594
vn -0.8205 -0.3501 0.4518
vn 0.8600 -0.0456 0.5082
vn 0.9941 0.1089 -0.0012
vn -0.9555 -0.0883 0.2815
vn -0.9915 -0.0506 0.1203
vn -0.7815 -0.4313 0.4508
vn -0.8160 -0.1099 0.5675
vn -0.9698 -0.0854 0.2285
vn -0.2364 -0.0015 -0.9717
vn -0.4109 0.1234 -0.9033
vn 0.1347 -0.1264 -0.9828
vn -0.0163 -0.0747 -0.9971
vn 0.1661 -0.8162 0.5534
vn -0.7511 -0.3540 0.5572
vn -0.1492 -0.1548 -0.9766
vn 0.0655 0.1293 -0.9894
vn 0.9927 0.0560 -0.1071
vn 0.5886 -0.0820 0.8043
vn 0.2177 -0.1655 0.9619
vn 0.2601 -0.1047 -0.9599
vn 0.8956 0.0765 -0.4382
vn 0.4882 -0.1149 -0.8651
vn -0.1403 -0.6270 -0.7663
vn 0.7482 -0.1206 -0.6524
vn -0.5823 0.0053 -0.8130
vn -0.4709 -0.2577 -0.8437
vn -0.9425 -0.0550 -0.3296
vn -0.8931 -0.0380 -0.4482
vn 0.8116 -0.0274 -0.5836
vn -0.8744 -0.1816 0.4499
vn -0.8754 -0.3236 0.3591
vn -0.2519 0.8611 0.4417
vn 0.9050 -0.1860 0.3827
vn 0.5116 -0.2446 0.8237
vn 0.5151 -0.1922 0.8353
vn -0.6552 -0.1652 -0.7372
vn -0.9264 -0.3174 -0.2026
vn 0.2829 0.8625 0.4196
vn -0.4560 0.0008 0.8900
vn -0.6707 -0.0889 -0.7364
vn -0.3392 0.0187 -0.9405
vn -0.3042 -0.3277 -0.8945
vn 0.5703 -0.3784 0.7291
vn -0.4954 -0.1258 0.8595
vn -0.0033 -0.0488 0.9988
vn -0.1663 -0.0573 -0.9844
vn 0.9167 0.3659 -0.1608
vn -0.4736 0.8769 0.0816
vn 0.3407 -0.1009 -0.9347
vn -0.9337 0.0737 0.3503
vn 0.9187 -0.2406 -0.3131
# 138 vertex normals

vt 0.8505 0.5875 0.0000
vt 0.9544 0.6021 0.0000
vt 0.8904 0.7492 0.0000
vt 0.1708 0.5347 0.0000
vt 0.2307 0.5924 0.0000
vt 0.1740 0.6199 0.0000
vt 0.1806 0.2470 0.0000
vt 0.1697 0.2020 0.0000
vt 0.1980 0.1717 0.0000
vt 0.1512 0.1069 0.0000
vt 0.2009 0.0659 0.0000
vt 0.2360 0.1002 0.0000
vt 0.2202 0.4346 0.0000
vt 0.2550 0.4058 0.0000
vt 0.2745 0.4306 0.0000
vt 0.9477 0.7472 0.0000
vt 0.2428 0.0580 0.0000
vt 0.4117 0.3351 0.0000
vt 0.4654 0.3902 0.0000
vt 0.4221 0.4095 0.0000
vt 0.1650 0.2892 0.0000
vt 0.1655 0.2589 0.0000
vt 0.0770 0.4322 0.0000
vt 0.0734 0.3747 0.0000
vt 0.1906 0.3992 0.0000
vt 0.2348 0.2922 0.0000
vt 0.3311 0.2949 0.0000
vt 0.2326 0.3420 0.0000
vt 0.3513 0.3552 0.0000
vt 0.3835 0.3554 0.0000
vt 0.3947 0.4106 0.0000
vt 0.2505 0.4916 0.0000
vt 0.3712 0.4282 0.0000
vt 0.3134 0.5004 0.0000
vt 0.4533 0.4602 0.0000
vt 0.2829 0.4374 0.0000
vt 0.1345 0.6438 0.0000
vt 0.0878 0.6184 0.0000
vt 0.1442 0.5616 0.0000
vt 0.0814 0.3476 0.0000
vt 0.1477 0.3092 0.0000
vt 0.1815 0.3546 0.0000
vt 0.0175 0.2208 0.0000
vt 0.0357 0.2555 0.0000
vt 0.0055 0.3398 0.0000
vt 0.3979 0.5167 0.0000
vt 0.2188 0.5212 0.0000
vt 0.3297 0.2717 0.0000
vt 0.2305 0.2518 0.0000
vt 0.3304 0.1907 0.0000
vt 0.8670 0.5727 0.0000
vt 0.1169 0.1904 0.0000
vt 0.1615 0.1447 0.0000
vt 0.1653 0.1760 0.0000
vt 0.0338 0.1452 0.0000
vt 0.0498 0.1969 0.0000
vt 0.0222 0.1848 0.0000
vt 0.0490 0.2200 0.0000
vt 0.1909 0.1382 0.0000
vt 0.4050 0.2004 0.0000
vt 0.3853 0.2705 0.0000
vt 0.3768 0.2070 0.0000
vt 0.9303 0.7627 0.0000
vt 0.8448 0.7618 0.0000
vt 0.0963 0.5658 0.0000
vt 0.1138 0.5005 0.0000
vt 0.1341 0.5268 0.0000
vt 0.2410 0.1666 0.0000
vt 0.2554 0.1234 0.0000
vt 0.3439 0.1843 0.0000
vt 0.7788 0.7312 0.0000
vt 0.7752 0.6197 0.0000
vt 0.7853 0.6353 0.0000
vt 0.0763 0.5374 0.0000
vt 0.0430 0.5493 0.0000
vt 0.3521 0.1661 0.0000
vt 0.3787 0.1273 0.0000
vt 0.4200 0.1869 0.0000
vt 0.1150 0.0137 0.0000
vt 0.0892 0.0694 0.0000
vt 0.0643 0.0114 0.0000
vt 0.0836 0.6544 0.0000
vt 0.1048 0.6804 0.0000
vt 0.2658 0.3843 0.0000
vt 0.3120 0.3880 0.0000
vt 0.1594 0.6382 0.0000
vt 0.1384 0.0519 0.0000
vt 0.3444 0.4145 0.0000
vt 0.2944 0.4563 0.0000
vt 0.0818 0.1332 0.0000
vt 0.0485 0.0869 0.0000
vt 0.4151 0.2513 0.0000
vt 0.0551 0.4571 0.0000
vt 0.0155 0.3712 0.0000
vt 0.0318 0.5186 0.0000
vt 0.0267 0.4650 0.0000
vt 0.0680 0.5089 0.0000
vt 0.2661 0.1062 0.0000
vt 0.2266 0.1381 0.0000
vt 0.1016 0.4830 0.0000
vt 0.1184 0.4533 0.0000
vt 0.1248 0.4930 0.0000
vt 0.1751 0.4977 0.0000
vt 0.1796 0.4349 0.0000
vt 0.0597 0.3112 0.0000
vt 0.0272 0.3341 0.0000
vt 0.0965 0.2416 0.0000
vt 0.1023 0.2869 0.0000
vt 0.4052 0.4252 0.0000
vt 0.3492 0.4309 0.0000
vt 0.1313 0.2984 0.0000
vt 0.1494 0.2564 0.0000
vt 0.1109 0.1072 0.0000
vt 0.1967 0.6538 0.0000
vt 0.2691 0.6159 0.0000
vt 0.2886 0.5509 0.0000
vt 0.1393 0.2264 0.0000
vt 0.0863 0.1700 0.0000
vt 0.0804 0.2123 0.0000
vt 0.3698 0.3185 0.0000
vt 0.3683 0.2180 0.0000
vt 0.2726 0.3438 0.0000
vt 0.3485 0.3298 0.0000
vt 0.2351 0.3724 0.0000
vt 0.3034 0.3599 0.0000
vt 0.1412 0.6728 0.0000
vt 0.1859 0.6812 0.0000
vt 0.1660 0.0395 0.0000
vt 0.2236 0.1740 0.0000
vt 0.3236 0.4115 0.0000
vt 0.3348 0.3730 0.0000
vt 0.7879 0.7283 0.0000
vt 0.3279 0.1393 0.0000
vt 0.3095 0.0800 0.0000
vt 0.2747 0.0624 0.0000
vt 0.3345 0.5722 0.0000
vt 0.3329 0.3430 0.0000
vt 0.3411 0.3570 0.0000
vt 0.7898 0.5779 0.0000
vt 0.7929 0.5908 0.0000
vt 0.1495 0.5314 0.0000
vt 0.2104 0.3465 0.0000
vt 0.2029 0.3182 0.0000
vt 0.2281 0.3185 0.0000
vt 0.3485 0.1219 0.0000
vt 0.3921 0.5504 0.0000
vt 0.2012 0.5141 0.0000
vt 0.2147 0.5351 0.0000
vt 0.0964 0.6974 0.0000
vt 0.1913 0.2980 0.0000
vt 0.9638 0.6311 0.0000
vt 0.9195 0.5881 0.0000
vt 0.9593 0.5968 0.0000
vt 0.8870 0.5757 0.0000
vt 0.7996 0.7478 0.0000
vt 0.8235 0.7485 0.0000
vt 0.2006 0.2494 0.0000
vt 0.0694 0.4965 0.0000
vt 0.3432 0.1960 0.0000
vt 0.2970 0.5951 0.0000
vt 0.0416 0.1097 0.0000
# 161 texture coords

g PillarExtraLarge
s 1
f 1/1/1 2/2/2 3/3/3 
f 4/4/4 5/5/5 6/6/6 
f 7/7/7 8/8/8 9/9/9 
f 10/10/10 11/11/11 12/12/12 
f 13/13/13 14/14/14 15/15/15 
f 3/3/3 2/2/2 16/16/16 
f 12/12/12 11/11/11 17/17/17 
f 18/18/18 19/19/19 20/20/20 
f 21/21/21 22/22/22 7/7/7 
f 23/23/23 24/24/24 25/25/25 
f 26/26/26 27/27/27 28/28/28 
f 29/29/29 30/30/30 31/31/31 
f 32/32/32 33/33/33 34/34/34 
f 33/33/33 35/35/35 34/34/34 
f 32/32/32 13/13/13 36/36/36 
f 37/37/37 38/38/38 39/39/39 
f 40/40/40 41/41/41 42/42/42 
f 43/43/43 44/44/44 16/45/16 
f 34/34/34 35/35/35 45/46/45 
f 5/5/5 46/47/46 34/34/34 
f 47/48/47 48/49/48 49/50/49 
f 26/26/26 48/49/48 47/48/47 
f 50/51/50 2/2/2 1/1/1 
f 51/52/51 52/53/52 53/54/53 
f 54/55/54 55/56/55 56/57/56 
f 57/58/57 44/44/44 43/43/43 
f 53/54/53 52/53/52 58/59/58 
f 59/60/59 60/61/60 61/62/61 
f 3/3/3 62/63/62 63/64/63 
f 64/65/64 65/66/65 66/67/66 
f 67/68/67 49/50/49 48/49/48 
f 67/68/67 68/69/68 69/70/69 
f 70/71/70 71/72/71 72/73/72 
f 73/74/73 64/65/64 70/75/70 
f 74/76/74 59/60/59 69/70/69 
f 45/77/45 35/78/35 74/76/74 
f 75/79/75 76/80/76 77/81/77 
f 71/82/71 37/37/37 78/83/78 
f 25/25/25 40/40/40 42/42/42 
f 15/15/15 79/84/79 80/85/80 
f 81/86/81 39/39/39 6/6/6 
f 76/80/76 75/79/75 82/87/82 
f 83/88/83 29/29/29 31/31/31 
f 32/32/32 84/89/84 33/33/33 
f 51/52/51 85/90/85 52/53/52 
f 77/81/77 76/80/76 50/91/50 
f 60/61/60 19/92/19 18/18/18 
f 26/26/26 47/48/47 27/27/27 
f 86/93/86 62/94/62 23/23/23 
f 87/95/87 63/96/63 88/97/88 
f 17/17/17 89/98/89 12/12/12 
f 90/99/90 68/69/68 67/68/67 
f 91/100/91 86/93/86 92/101/92 
f 66/67/66 65/66/65 93/102/93 
f 46/47/46 32/32/32 34/34/34 
f 94/103/94 95/104/95 32/32/32 
f 44/44/44 96/105/96 97/106/97 
f 44/44/44 98/107/98 99/108/99 
f 33/33/33 100/109/100 35/35/35 
f 31/31/31 33/33/33 101/110/101 
f 93/102/93 95/104/95 66/67/66 
f 95/104/95 23/23/23 25/25/25 
f 38/38/38 64/65/64 39/39/39 
f 38/38/38 70/75/70 64/65/64 
f 41/41/41 102/111/102 103/112/103 
f 40/40/40 102/111/102 41/41/41 
f 10/10/10 12/12/12 52/53/52 
f 85/90/85 104/113/104 52/53/52 
f 62/94/62 24/24/24 23/23/23 
f 97/106/97 96/105/96 40/40/40 
f 74/76/74 35/78/35 59/60/59 
f 20/20/20 19/19/19 35/35/35 
f 51/52/51 53/54/53 8/8/8 
f 22/22/22 8/8/8 7/7/7 
f 105/114/105 5/5/5 17/115/17 
f 5/5/5 34/34/34 106/116/106 
f 107/117/107 51/52/51 8/8/8 
f 44/44/44 57/58/57 98/107/98 
f 108/118/108 55/56/55 85/90/85 
f 55/56/55 108/118/108 109/119/109 
f 47/48/47 60/61/60 110/120/110 
f 111/121/111 60/61/60 47/48/47 
f 109/119/109 108/118/108 51/52/51 
f 108/118/108 85/90/85 51/52/51 
f 62/63/62 3/3/3 16/16/16 
f 62/94/62 97/106/97 40/40/40 
f 112/122/112 27/27/27 113/123/113 
f 114/124/114 112/122/112 115/125/115 
f 78/83/78 37/37/37 75/126/75 
f 75/126/75 81/86/81 82/127/82 
f 81/86/81 105/114/105 82/127/82 
f 105/128/105 17/17/17 11/11/11 
f 116/129/116 90/99/90 67/68/67 
f 48/49/48 116/129/116 67/68/67 
f 117/130/117 118/131/118 83/88/83 
f 84/89/84 32/32/32 36/36/36 
f 110/120/110 30/30/30 29/29/29 
f 110/120/110 60/61/60 18/18/18 
f 119/132/119 70/71/70 72/73/72 
f 88/97/88 70/75/70 87/95/87 
f 68/69/68 120/133/120 69/70/69 
f 89/98/89 121/134/121 120/133/120 
f 13/13/13 25/25/25 14/14/14 
f 25/25/25 42/42/42 114/124/114 
f 122/135/122 121/134/121 89/98/89 
f 121/136/121 106/116/106 34/34/34 
f 112/122/112 123/137/123 115/125/115 
f 110/120/110 29/29/29 113/123/113 
f 118/131/118 29/29/29 83/88/83 
f 123/137/123 29/29/29 124/138/124 
f 71/72/71 77/139/77 125/140/125 
f 125/140/125 77/139/77 50/51/50 
f 24/24/24 40/40/40 25/25/25 
f 62/94/62 40/40/40 24/24/24 
f 39/39/39 126/141/126 6/6/6 
f 39/39/39 64/65/64 66/67/66 
f 76/80/76 82/87/82 10/10/10 
f 50/91/50 76/80/76 104/113/104 
f 79/84/79 114/124/114 115/125/115 
f 25/25/25 114/124/114 14/14/14 
f 49/50/49 111/121/111 47/48/47 
f 69/70/69 59/60/59 61/62/61 
f 19/92/19 59/60/59 35/78/35 
f 60/61/60 59/60/59 19/92/19 
f 127/142/127 128/143/128 129/144/129 
f 114/124/114 127/142/127 28/28/28 
f 40/40/40 96/105/96 102/111/102 
f 44/44/44 99/108/99 96/105/96 
f 99/108/99 98/107/98 107/117/107 
f 51/52/51 107/117/107 98/107/98 
f 120/133/120 130/145/130 74/76/74 
f 120/133/120 74/76/74 69/70/69 
f 107/117/107 103/112/103 102/111/102 
f 107/117/107 8/8/8 22/22/22 
f 52/53/52 12/12/12 58/59/58 
f 90/99/90 12/12/12 68/69/68 
f 18/18/18 20/20/20 31/31/31 
f 31/31/31 100/109/100 33/33/33 
f 120/133/120 121/134/121 130/145/130 
f 121/136/121 34/34/34 130/146/130 
f 53/54/53 9/9/9 8/8/8 
f 53/54/53 58/59/58 9/9/9 
f 81/86/81 6/6/6 105/114/105 
f 105/114/105 6/6/6 5/5/5 
f 130/145/130 45/77/45 74/76/74 
f 34/34/34 45/46/45 130/146/130 
f 66/67/66 95/104/95 94/103/94 
f 94/103/94 32/32/32 131/147/131 
f 98/107/98 109/119/109 51/52/51 
f 55/56/55 109/119/109 98/107/98 
f 5/5/5 4/4/4 132/148/132 
f 126/141/126 94/103/94 131/147/131 
f 95/104/95 92/101/92 23/23/23 
f 86/93/86 23/23/23 92/101/92 
f 126/141/126 66/67/66 94/103/94 
f 39/39/39 66/67/66 126/141/126 
f 47/48/47 110/120/110 27/27/27 
f 27/27/27 110/120/110 113/123/113 
f 77/149/77 78/83/78 75/126/75 
f 71/82/71 78/83/78 77/149/77 
f 42/42/42 21/21/21 133/150/133 
f 21/21/21 7/7/7 133/150/133 
f 41/41/41 103/112/103 21/21/21 
f 41/41/41 21/21/21 42/42/42 
f 2/2/2 43/151/43 16/16/16 
f 43/43/43 56/57/56 55/56/55 
f 26/26/26 129/144/129 128/143/128 
f 133/150/133 48/49/48 26/26/26 
f 124/138/124 79/84/79 115/125/115 
f 123/137/123 124/138/124 115/125/115 
f 125/140/125 50/51/50 1/1/1 
f 125/140/125 1/1/1 3/3/3 
f 42/42/42 127/142/127 114/124/114 
f 42/42/42 128/143/128 127/142/127 
f 2/2/2 54/152/54 56/153/56 
f 2/2/2 56/153/56 43/151/43 
f 2/2/2 50/51/50 134/154/134 
f 85/90/85 50/91/50 104/113/104 
f 37/37/37 39/39/39 81/86/81 
f 37/37/37 81/86/81 75/126/75 
f 87/155/87 70/71/70 119/132/119 
f 3/3/3 119/132/119 72/73/72 
f 135/156/135 63/64/63 87/155/87 
f 135/156/135 87/155/87 119/132/119 
f 14/14/14 114/124/114 79/84/79 
f 15/15/15 14/14/14 79/84/79 
f 136/157/136 116/129/116 48/49/48 
f 136/157/136 48/49/48 133/150/133 
f 137/158/137 86/93/86 91/100/91 
f 137/158/137 65/66/65 64/65/64 
f 58/59/58 90/99/90 116/129/116 
f 58/59/58 12/12/12 90/99/90 
f 73/74/73 70/75/70 88/97/88 
f 73/74/73 137/158/137 64/65/64 
f 9/9/9 58/59/58 116/129/116 
f 9/9/9 116/129/116 136/157/136 
f 63/96/63 137/158/137 88/97/88 
f 137/158/137 73/74/73 88/97/88 
f 10/10/10 82/87/82 11/11/11 
f 82/87/82 105/128/105 11/11/11 
f 95/104/95 25/25/25 13/13/13 
f 95/104/95 13/13/13 32/32/32 
f 67/68/67 69/70/69 49/50/49 
f 69/70/69 61/62/61 138/159/138 
f 12/12/12 89/98/89 68/69/68 
f 68/69/68 89/98/89 120/133/120 
f 62/94/62 16/45/16 97/106/97 
f 44/44/44 97/106/97 16/45/16 
f 70/75/70 38/38/38 71/82/71 
f 38/38/38 37/37/37 71/82/71 
f 72/73/72 71/72/71 125/140/125 
f 3/3/3 72/73/72 125/140/125 
f 91/100/91 92/101/92 65/66/65 
f 137/158/137 91/100/91 65/66/65 
f 99/108/99 107/117/107 102/111/102 
f 96/105/96 99/108/99 102/111/102 
f 43/43/43 55/56/55 57/58/57 
f 55/56/55 98/107/98 57/58/57 
f 63/96/63 86/93/86 137/158/137 
f 63/96/63 62/94/62 86/93/86 
f 126/141/126 131/147/131 4/4/4 
f 6/6/6 126/141/126 4/4/4 
f 104/113/104 10/10/10 52/53/52 
f 104/113/104 76/80/76 10/10/10 
f 79/84/79 124/138/124 80/85/80 
f 124/138/124 29/29/29 118/131/118 
f 28/28/28 27/27/27 112/122/112 
f 28/28/28 112/122/112 114/124/114 
f 84/89/84 36/36/36 117/130/117 
f 80/85/80 117/130/117 15/15/15 
f 36/36/36 13/13/13 15/15/15 
f 36/36/36 15/15/15 117/130/117 
f 110/120/110 18/18/18 30/30/30 
f 18/18/18 31/31/31 30/30/30 
f 61/62/61 60/61/60 111/121/111 
f 138/159/138 61/62/61 111/121/111 
f 7/7/7 136/157/136 133/150/133 
f 7/7/7 9/9/9 136/157/136 
f 117/130/117 101/110/101 84/89/84 
f 84/89/84 101/110/101 33/33/33 
f 93/102/93 92/101/92 95/104/95 
f 65/66/65 92/101/92 93/102/93 
f 122/160/122 106/116/106 121/136/121 
f 5/5/5 106/116/106 122/160/122 
f 83/88/83 101/110/101 117/130/117 
f 83/88/83 31/31/31 101/110/101 
f 17/17/17 122/135/122 89/98/89 
f 17/115/17 5/5/5 122/160/122 
f 124/138/124 118/131/118 80/85/80 
f 80/85/80 118/131/118 117/130/117 
f 4/4/4 131/147/131 132/148/132 
f 46/47/46 131/147/131 32/32/32 
f 132/148/132 131/147/131 46/47/46 
f 132/148/132 46/47/46 5/5/5 
f 31/31/31 20/20/20 100/109/100 
f 20/20/20 35/35/35 100/109/100 
f 103/112/103 107/117/107 22/22/22 
f 103/112/103 22/22/22 21/21/21 
f 3/3/3 63/64/63 135/156/135 
f 119/132/119 3/3/3 135/156/135 
f 49/50/49 138/159/138 111/121/111 
f 69/70/69 138/159/138 49/50/49 
f 42/42/42 133/150/133 128/143/128 
f 128/143/128 133/150/133 26/26/26 
f 85/90/85 55/56/55 134/161/134 
f 50/91/50 85/90/85 134/161/134 
f 129/144/129 26/26/26 28/28/28 
f 127/142/127 129/144/129 28/28/28 
f 54/55/54 134/161/134 55/56/55 
f 2/2/2 134/154/134 54/152/54 
f 123/137/123 113/123/113 29/29/29 
f 112/122/112 113/123/113 123/137/123 
# 272 faces

