# 3ds Max Wavefront OBJ Exporter v0.97b - (c)2007 guruware
# File Created: 28.06.2015 18:59:23

#
# object PillarSmall
#

v  0.1677 -0.0631 0.4830
v  -0.3878 -0.0104 0.4645
v  -0.3440 -0.1648 0.4948
v  -0.3147 -0.4823 -0.3939
v  -0.3592 -0.3495 -0.1857
v  -0.4659 -0.1835 -0.2919
v  0.2244 -0.4698 0.0688
v  0.2538 -0.4567 0.2802
v  -0.1408 -0.3634 0.4381
v  0.4457 -0.3002 0.1358
v  0.3897 -0.4132 -0.0018
v  0.3738 -0.3427 -0.3301
v  0.1241 -0.0101 0.4686
v  0.3513 -0.0098 -0.4009
v  -0.3640 -0.0100 -0.3801
v  -0.0876 -0.0649 -0.4643
v  0.1121 -0.2159 -0.4956
v  -0.1679 -0.2935 -0.4929
v  -0.0915 -0.4823 -0.3124
v  0.1991 -0.4833 -0.3418
v  -0.0280 -0.4426 -0.0961
v  0.1322 -0.3918 -0.4603
v  -0.1169 -0.4594 -0.4694
v  0.1533 -0.3286 0.4858
v  -0.2678 -0.2483 0.4956
v  0.3534 -0.4055 0.3096
v  0.4370 -0.0105 0.0468
v  0.4523 -0.0643 -0.2215
v  0.4994 -0.1726 0.0920
v  0.4551 -0.1515 0.3148
v  0.3894 -0.3370 0.3608
v  0.4068 -0.0639 -0.4102
v  0.4278 -0.1610 -0.3994
v  0.2601 -0.1115 -0.4628
v  -0.4738 -0.0101 -0.2912
v  -0.4871 -0.0099 0.3046
v  -0.4863 -0.0489 0.3407
v  -0.4994 -0.0797 -0.2849
v  -0.4568 -0.1380 0.0385
v  -0.4087 -0.0979 -0.4202
v  -0.3745 -0.3416 -0.4750
v  0.3031 -0.4324 -0.3354
v  -0.3749 -0.3248 -0.0091
v  -0.4670 -0.1700 -0.0178
v  -0.1384 -0.3943 0.2621
v  -0.3028 -0.3355 0.4591
v  0.3307 -0.2810 -0.3881
v  -0.2579 -0.3327 0.0761
v  -0.1786 -0.4167 -0.1903
v  0.3756 -0.0599 0.4300
v  0.3451 -0.2531 0.4596
v  -0.3469 -0.0443 -0.4338
v  -0.4256 -0.0968 0.4543
v  -0.4555 -0.1438 0.2522
v  0.2387 -0.4953 -0.0818
v  0.4751 -0.0818 0.0546
v  0.4233 -0.2363 -0.2030
v  0.4418 -0.0364 0.3533
v  -0.3847 -0.2950 0.4135
v  -0.3855 -0.2104 0.4659
v  -0.3680 -0.2750 0.1369
v  -0.1920 -0.4895 -0.4323
v  -0.1923 -0.3938 0.0063
v  0.1588 -0.4206 0.4264
v  0.3076 -0.3632 0.4540
v  0.3709 -0.0099 0.3737
v  -0.2449 -0.3691 -0.1392
v  -0.1558 -0.4393 -0.0432
# 68 vertices

vn 0.1318 0.2086 0.9691
vn -0.3222 0.6933 0.6447
vn -0.3701 -0.0312 0.9285
vn -0.4938 -0.8552 -0.1575
vn -0.6387 -0.7541 0.1526
vn -0.9243 -0.3750 -0.0707
vn 0.0796 -0.9904 0.1130
vn 0.1677 -0.9743 0.1502
vn -0.1203 -0.8290 0.5462
vn 0.9041 -0.4239 0.0535
vn 0.7305 -0.6828 -0.0127
vn 0.8959 -0.1334 -0.4237
vn 0.0447 0.7869 0.6155
vn 0.2885 0.8221 -0.4908
vn -0.2431 0.8889 -0.3882
vn -0.0426 0.4908 -0.8702
vn 0.1432 -0.0029 -0.9897
vn -0.0630 0.0119 -0.9979
vn -0.0957 -0.9761 0.1950
vn 0.2300 -0.9138 -0.3348
vn -0.1450 -0.9809 0.1300
vn 0.2784 -0.4174 -0.8650
vn 0.0321 -0.5664 -0.8235
vn 0.0385 -0.2825 0.9585
vn -0.0943 -0.2064 0.9739
vn 0.6050 -0.7662 0.2164
vn 0.5251 0.8510 -0.0087
vn 0.9283 0.3517 -0.1207
vn 0.9964 -0.0792 -0.0313
vn 0.9270 -0.1049 0.3601
vn 0.8274 -0.4207 0.3720
vn 0.6705 0.3780 -0.6384
vn 0.7871 -0.2247 -0.5745
vn 0.1986 0.1740 -0.9645
vn -0.6005 0.7566 -0.2587
vn -0.7063 0.6985 0.1153
vn -0.9474 -0.0293 0.3187
vn -0.9703 0.0413 -0.2383
vn -0.9069 -0.4047 0.1171
vn -0.5700 0.2279 -0.7894
vn -0.6168 -0.2599 -0.7430
vn 0.5782 -0.6739 -0.4600
vn -0.6397 -0.7464 0.1837
vn -0.9417 -0.2767 0.1916
vn -0.2352 -0.9669 0.0993
vn -0.3260 -0.7513 0.5738
vn 0.6124 -0.3471 -0.7103
vn -0.4450 -0.8747 0.1919
vn -0.3548 -0.9199 0.1667
vn 0.5119 0.3386 0.7895
vn 0.5400 -0.0937 0.8364
vn -0.2569 0.4555 -0.8524
vn -0.7551 -0.2112 0.6206
vn -0.9123 -0.4058 0.0553
vn 0.1631 -0.9858 0.0395
vn 0.9519 0.2997 -0.0646
vn 0.8715 -0.4655 -0.1544
vn 0.7762 0.4933 0.3926
vn -0.7422 -0.6231 0.2468
vn -0.7582 -0.0263 0.6514
vn -0.6921 -0.7196 0.0557
vn -0.1568 -0.8440 -0.5129
vn -0.3721 -0.9080 0.1925
vn -0.0159 -0.8480 0.5298
vn 0.4162 -0.5297 0.7390
vn 0.2415 0.9173 0.3167
vn -0.3471 -0.9326 0.0990
vn -0.1713 -0.9093 0.3792
# 68 vertex normals

vt 0.0701 0.9395 0.0000
vt 0.0020 0.8504 0.0000
vt 0.0277 0.8448 0.0000
vt 0.2083 0.7629 0.0000
vt 0.1610 0.7504 0.0000
vt 0.1995 0.7070 0.0000
vt 0.1655 0.8775 0.0000
vt 0.1349 0.9010 0.0000
vt 0.0687 0.8559 0.0000
vt 0.1712 0.9375 0.0000
vt 0.1847 0.9070 0.0000
vt 0.2404 0.8843 0.0000
vt 0.2831 0.6832 0.0000
vt 0.4404 0.6324 0.0000
vt 0.4450 0.7638 0.0000
vt 0.2849 0.7871 0.0000
vt 0.2702 0.8347 0.0000
vt 0.2457 0.7837 0.0000
vt 0.2007 0.8007 0.0000
vt 0.2205 0.8537 0.0000
vt 0.1657 0.8202 0.0000
vt 0.2432 0.8377 0.0000
vt 0.2255 0.7958 0.0000
vt 0.0921 0.9072 0.0000
vt 0.0398 0.8510 0.0000
vt 0.1336 0.9222 0.0000
vt 0.3576 0.6209 0.0000
vt 0.4076 0.6116 0.0000
vt 0.1863 0.9537 0.0000
vt 0.1425 0.9659 0.0000
vt 0.1285 0.9353 0.0000
vt 0.2855 0.8986 0.0000
vt 0.2586 0.9340 0.0000
vt 0.2703 0.8979 0.0000
vt 0.2880 0.8626 0.0000
vt 0.4311 0.7837 0.0000
vt 0.3226 0.7926 0.0000
vt 0.0097 0.8097 0.0000
vt 0.0595 0.6940 0.0000
vt 0.0483 0.7555 0.0000
vt 0.4334 0.7954 0.0000
vt 0.2320 0.6939 0.0000
vt 0.2488 0.7256 0.0000
vt 0.2223 0.7497 0.0000
vt 0.2304 0.8697 0.0000
vt 0.0922 0.7665 0.0000
vt 0.0598 0.7477 0.0000
vt 0.0860 0.7029 0.0000
vt 0.0991 0.8389 0.0000
vt 0.0490 0.8388 0.0000
vt 0.2528 0.8795 0.0000
vt 0.1033 0.7937 0.0000
vt 0.1716 0.7860 0.0000
vt 0.1120 0.9744 0.0000
vt 0.1107 0.9405 0.0000
vt 0.4597 0.7128 0.0000
vt 0.4552 0.7609 0.0000
vt 0.0144 0.8336 0.0000
vt 0.0266 0.7929 0.0000
vt 0.1835 0.8724 0.0000
vt 0.2034 0.9644 0.0000
vt 0.2328 0.9150 0.0000
vt 0.1420 0.9890 0.0000
vt 0.0442 0.8266 0.0000
vt 0.0298 0.8331 0.0000
vt 0.0700 0.7838 0.0000
vt 0.2198 0.7811 0.0000
vt 0.1310 0.7974 0.0000
vt 0.1044 0.8979 0.0000
vt 0.1099 0.9254 0.0000
vt 0.2848 0.6353 0.0000
vt 0.2981 0.6369 0.0000
vt 0.4607 0.7748 0.0000
vt 0.1141 0.7413 0.0000
vt 0.2915 0.7776 0.0000
vt 0.4447 0.6202 0.0000
vt 0.4622 0.6466 0.0000
vt 0.3006 0.6227 0.0000
vt 0.3554 0.6071 0.0000
vt 0.1539 0.7737 0.0000
vt 0.2743 0.6749 0.0000
vt 0.3158 0.7981 0.0000
vt 0.1464 0.7997 0.0000
# 83 texture coords

g PillarSmall
s 1
f 1/1/1 2/2/2 3/3/3 
f 4/4/4 5/5/5 6/6/6 
f 7/7/7 8/8/8 9/9/9 
f 10/10/10 11/11/11 12/12/12 
f 13/13/13 14/14/14 15/15/15 
f 16/16/16 17/17/17 18/18/18 
f 19/19/19 20/20/20 21/21/21 
f 22/22/22 20/20/20 23/23/23 
f 24/24/24 1/1/1 25/25/25 
f 26/26/26 11/11/11 10/10/10 
f 27/27/27 28/28/28 14/14/14 
f 29/29/29 30/30/30 31/31/31 
f 32/32/32 28/33/28 33/34/33 
f 34/35/34 17/17/17 16/16/16 
f 13/13/13 35/36/35 36/37/36 
f 37/38/37 38/39/38 39/40/39 
f 35/36/35 38/41/38 36/37/36 
f 38/42/38 40/43/40 41/44/41 
f 11/11/11 42/45/42 12/12/12 
f 26/26/26 7/7/7 11/11/11 
f 43/46/43 44/47/44 6/48/6 
f 45/49/45 7/7/7 46/50/46 
f 34/35/34 33/34/33 17/17/17 
f 47/51/47 42/45/42 22/22/22 
f 48/52/48 45/49/45 46/50/46 
f 5/5/5 19/19/19 49/53/49 
f 14/14/14 13/13/13 27/27/27 
f 50/54/50 1/1/1 51/55/51 
f 4/4/4 19/19/19 5/5/5 
f 18/18/18 17/17/17 23/23/23 
f 41/44/41 4/4/4 6/6/6 
f 41/44/41 23/23/23 4/4/4 
f 40/43/40 16/16/16 18/18/18 
f 14/14/14 16/56/16 52/57/52 
f 24/24/24 25/25/25 9/9/9 
f 53/58/53 54/59/54 3/3/3 
f 21/21/21 20/20/20 55/60/55 
f 11/11/11 55/60/55 42/45/42 
f 56/61/56 29/29/29 57/62/57 
f 58/63/58 29/29/29 56/61/56 
f 59/64/59 60/65/60 54/59/54 
f 61/66/61 59/64/59 54/59/54 
f 17/17/17 47/51/47 22/22/22 
f 23/23/23 17/17/17 22/22/22 
f 62/67/62 19/19/19 4/4/4 
f 20/20/20 19/19/19 62/67/62 
f 43/46/43 63/68/63 48/52/48 
f 39/40/39 43/46/43 61/66/61 
f 57/62/57 10/10/10 47/51/47 
f 17/17/17 33/34/33 47/51/47 
f 10/10/10 29/29/29 31/31/31 
f 57/62/57 29/29/29 10/10/10 
f 47/51/47 10/10/10 12/12/12 
f 47/51/47 12/12/12 42/45/42 
f 9/9/9 8/8/8 64/69/64 
f 7/7/7 26/26/26 8/8/8 
f 26/26/26 65/70/65 8/8/8 
f 30/30/30 51/55/51 31/31/31 
f 13/13/13 50/71/50 66/72/66 
f 50/54/50 51/55/51 30/30/30 
f 58/63/58 30/30/30 29/29/29 
f 30/30/30 58/63/58 50/54/50 
f 45/49/45 63/68/63 7/7/7 
f 48/52/48 63/68/63 45/49/45 
f 60/65/60 59/64/59 46/50/46 
f 59/64/59 61/66/61 46/50/46 
f 35/36/35 40/73/40 38/41/38 
f 15/15/15 14/14/14 52/57/52 
f 43/46/43 5/74/5 63/68/63 
f 6/48/6 5/74/5 43/46/43 
f 33/34/33 28/33/28 57/62/57 
f 33/34/33 57/62/57 47/51/47 
f 22/22/22 42/45/42 20/20/20 
f 55/60/55 20/20/20 42/45/42 
f 2/75/2 13/13/13 36/37/36 
f 3/3/3 2/2/2 53/58/53 
f 37/38/37 53/58/53 2/2/2 
f 53/58/53 37/38/37 54/59/54 
f 14/14/14 28/28/28 32/76/32 
f 16/56/16 14/14/14 34/77/34 
f 13/13/13 66/72/66 27/27/27 
f 27/27/27 58/78/58 56/79/56 
f 55/60/55 7/7/7 21/21/21 
f 7/7/7 55/60/55 11/11/11 
f 46/50/46 7/7/7 9/9/9 
f 25/25/25 46/50/46 9/9/9 
f 5/5/5 67/80/67 63/68/63 
f 21/21/21 7/7/7 63/68/63 
f 56/61/56 57/62/57 28/33/28 
f 27/27/27 56/79/56 28/28/28 
f 43/46/43 48/52/48 61/66/61 
f 61/66/61 48/52/48 46/50/46 
f 39/40/39 61/66/61 54/59/54 
f 37/38/37 39/40/39 54/59/54 
f 9/9/9 64/69/64 24/24/24 
f 64/69/64 8/8/8 65/70/65 
f 51/55/51 1/1/1 24/24/24 
f 24/24/24 64/69/64 65/70/65 
f 15/15/15 35/36/35 13/13/13 
f 35/36/35 15/15/15 40/73/40 
f 15/15/15 52/57/52 40/73/40 
f 16/56/16 40/73/40 52/57/52 
f 38/42/38 41/44/41 6/6/6 
f 38/39/38 6/48/6 44/47/44 
f 41/44/41 18/18/18 23/23/23 
f 40/43/40 18/18/18 41/44/41 
f 25/25/25 60/65/60 46/50/46 
f 1/1/1 3/3/3 25/25/25 
f 3/3/3 60/65/60 25/25/25 
f 60/65/60 3/3/3 54/59/54 
f 44/47/44 43/46/43 39/40/39 
f 39/40/39 38/39/38 44/47/44 
f 10/10/10 31/31/31 26/26/26 
f 65/70/65 26/26/26 31/31/31 
f 62/67/62 4/4/4 23/23/23 
f 23/23/23 20/20/20 62/67/62 
f 34/35/34 32/32/32 33/34/33 
f 14/14/14 32/76/32 34/77/34 
f 13/13/13 1/81/1 50/71/50 
f 13/13/13 2/75/2 1/81/1 
f 51/55/51 24/24/24 65/70/65 
f 31/31/31 51/55/51 65/70/65 
f 37/82/37 2/75/2 36/37/36 
f 36/37/36 38/41/38 37/82/37 
f 68/83/68 21/21/21 63/68/63 
f 49/53/49 19/19/19 21/21/21 
f 49/53/49 21/21/21 68/83/68 
f 67/80/67 68/83/68 63/68/63 
f 5/5/5 49/53/49 67/80/67 
f 67/80/67 49/53/49 68/83/68 
f 50/71/50 58/78/58 66/72/66 
f 66/72/66 58/78/58 27/27/27 
# 132 faces

